<?xml version="1.0" standalone="no"?><!DOCTYPE svg PUBLIC "-//W3C//DTD SVG 20010904//EN"
    "http://www.w3.org/TR/2001/REC-SVG-20010904/DTD/svg10.dtd">
<svg height="512.000000pt" preserveAspectRatio="xMidYMid meet" version="1.0"
    viewBox="0 0 512.000000 512.000000" width="512.000000pt" xmlns="http://www.w3.org/2000/svg">
    <metadata>
        Created by potrace 1.14, written by Peter Selinger 2001-2017
    </metadata>
    <g fill="#000000" stroke="none"
        transform="translate(0.000000,512.000000) scale(0.100000,-0.100000)">
        <path d="M1537 3263 c-2 -5 -3 -113 -3 -241 1 -212 -4 -270 -20 -229 -7 18
-107 89 -149 105 -50 20 -225 37 -225 21 0 -3 -6 -6 -12 -6 -32 -1 -126 -31
-138 -43 -3 -3 -23 -18 -45 -34 -92 -68 -164 -181 -191 -303 -11 -49 -12 -227
-2 -273 5 -25 12 -58 15 -75 3 -16 9 -32 12 -35 3 -3 18 -30 34 -60 54 -108
154 -192 272 -228 11 -3 72 -6 135 -6 104 -1 120 1 164 24 27 14 71 46 99 73
27 26 50 47 51 47 1 0 2 -24 1 -54 -1 -30 1 -60 6 -67 5 -8 49 -12 148 -13
l141 -1 0 703 0 702 -144 0 c-80 0 -147 -3 -149 -7z m-154 -608 c21 -9 54 -31
73 -51 35 -34 78 -117 67 -128 -4 -3 -2 -6 3 -6 8 0 12 -143 5 -160 -1 -3 -4
-15 -7 -27 -11 -61 -84 -148 -145 -173 -44 -19 -151 -19 -172 -1 -10 7 -17 10
-17 6 0 -9 -70 43 -87 65 -20 25 -56 103 -57 125 -1 11 -4 25 -7 30 -6 11 -4
69 5 121 26 162 193 261 339 199z" />
        <path d="M2500 2922 c-20 -2 -120 -29 -140 -38 -3 -1 -15 -5 -27 -9 -13 -4
-23 -10 -23 -14 0 -4 -15 -15 -32 -25 -39 -22 -138 -125 -138 -143 0 -7 -4
-13 -8 -13 -7 0 -42 -74 -49 -104 -1 -6 -9 -33 -17 -61 -17 -63 -18 -194 -1
-267 20 -86 71 -182 128 -241 52 -54 145 -117 172 -117 7 0 16 -4 19 -9 18
-28 268 -40 371 -17 74 17 255 145 255 181 0 6 -17 25 -37 42 -21 17 -55 48
-76 67 -20 20 -42 36 -47 36 -6 0 -29 -13 -52 -30 -22 -16 -47 -30 -55 -30 -7
0 -13 -4 -13 -8 0 -14 -91 -30 -155 -28 -57 3 -125 26 -152 52 -7 7 -16 14
-20 16 -14 6 -64 106 -56 111 5 2 160 4 346 3 186 0 347 2 357 6 18 7 19 15
15 100 -5 96 -15 161 -35 213 -79 210 -235 322 -455 329 -27 1 -61 0 -75 -2z
m130 -252 c3 -1 8 -2 13 -1 4 0 7 -2 7 -7 0 -4 13 -13 28 -19 24 -11 84 -89
88 -115 1 -4 2 -9 3 -10 2 -2 4 -13 7 -25 5 -27 27 -24 -235 -26 -139 -2 -195
1 -198 10 -2 6 8 36 22 67 43 91 116 136 215 130 25 -1 47 -3 50 -4z" />
        <path d="M3210 2885 c0 -8 4 -23 9 -33 13 -24 34 -75 37 -87 1 -9 121 -315
144 -370 4 -11 20 -51 35 -90 15 -38 32 -81 38 -95 5 -14 12 -34 14 -44 2 -11
7 -24 12 -30 5 -6 18 -38 30 -71 12 -33 25 -69 30 -80 5 -11 14 -33 21 -50 35
-87 20 -80 168 -80 l132 0 11 33 c6 19 17 46 25 60 7 14 11 29 8 34 -3 4 0 8
5 8 6 0 11 6 11 14 0 7 18 57 40 110 22 53 40 100 40 106 0 5 11 33 24 62 37
84 121 302 118 311 -1 4 2 7 6 7 4 0 8 10 9 22 1 11 7 24 13 28 6 4 10 11 9
16 -1 5 3 22 9 37 7 16 12 33 12 38 0 5 4 9 10 9 5 0 9 3 9 8 -3 16 14 72 22
72 5 0 9 8 9 18 0 10 5 23 12 30 19 19 -9 23 -161 20 l-144 -3 -44 -130 c-53
-155 -49 -142 -58 -182 -4 -18 -12 -33 -18 -33 -6 0 -8 -3 -4 -6 6 -6 -55
-194 -74 -227 -6 -11 -8 -21 -5 -24 3 -3 -1 -18 -9 -33 -8 -15 -11 -30 -8 -34
4 -3 1 -6 -5 -6 -6 0 -15 12 -18 28 -4 15 -9 32 -13 37 -3 6 -6 15 -7 20 -1 6
-14 46 -29 90 -15 44 -28 86 -30 95 -2 8 -11 32 -19 53 -9 20 -13 37 -10 37 4
0 1 6 -5 13 -6 8 -12 22 -14 33 -2 10 -10 33 -16 49 -7 17 -14 35 -15 40 -1 6
-5 16 -9 23 -5 6 -6 12 -4 12 3 0 -7 33 -22 73 l-27 72 -152 3 c-131 2 -152 0
-152 -13z" />
    </g>
</svg>
